HIERARCHY
ROOT Hips
{
	OFFSET	0.00	0.00	0.00
	CHANNELS 6 Xposition Yposition Zposition Zrotation Xrotation Yrotation
	JOINT LeftUpLeg
	{
		OFFSET	 0.126116	-0.065224	 0.014019
		CHANNELS 3 Zrotation Xrotation Yrotation
		JOINT LeftLeg
		{
			OFFSET	 0.000000	 0.569914	 0.000000
			CHANNELS 3 Zrotation Xrotation Yrotation
			JOINT LeftFoot
			{
				OFFSET	 0.000000	 0.544423	 0.000000
				CHANNELS 3 Zrotation Xrotation Yrotation
				JOINT LeftToeBase
				{
					OFFSET	 0.000000	 0.207117	 0.000000
					CHANNELS 3 Zrotation Xrotation Yrotation
					End Site
					{
						OFFSET	 0.000000	 0.207117	 0.000000
					}
				}
			}
		}
	}
	JOINT RightUpLeg
	{
		OFFSET	-0.124023	-0.065224	 0.008373
		CHANNELS 3 Zrotation Xrotation Yrotation
		JOINT RightLeg
		{
			OFFSET	 0.000000	 0.570047	 0.000000
			CHANNELS 3 Zrotation Xrotation Yrotation
			JOINT RightFoot
			{
				OFFSET	 0.000000	 0.544354	 0.000000
				CHANNELS 3 Zrotation Xrotation Yrotation
				JOINT RightToeBase
				{
					OFFSET	 0.000000	 0.207540	 0.000000
					CHANNELS 3 Zrotation Xrotation Yrotation
					End Site
					{
						OFFSET	 0.000000	 0.207540	 0.000000
					}
				}
			}
		}
	}
	JOINT Spine
	{
		OFFSET	 0.000184	 0.117403	 0.007763
		CHANNELS 3 Zrotation Xrotation Yrotation
		JOINT Spine1
		{
			OFFSET	 0.000000	 0.137269	 0.000000
			CHANNELS 3 Zrotation Xrotation Yrotation
			JOINT Spine2
			{
				OFFSET	 0.000000	 0.156879	 0.000000
				CHANNELS 3 Zrotation Xrotation Yrotation
				JOINT LeftShoulder
				{
					OFFSET	 0.080501	 0.160143	 0.002496
					CHANNELS 3 Zrotation Xrotation Yrotation
					JOINT LeftArm
					{
						OFFSET	 0.000000	 0.164363	 0.000000
						CHANNELS 3 Zrotation Xrotation Yrotation
						JOINT LeftForeArm
						{
							OFFSET	 0.000000	 0.364576	 0.000000
							CHANNELS 3 Zrotation Xrotation Yrotation
							JOINT LeftHand
							{
								OFFSET	 0.000000	 0.360812	 0.000000
								CHANNELS 3 Zrotation Xrotation Yrotation
								JOINT LeftHandIndex1
								{
									OFFSET	 0.000000	 0.086006	 0.000000
									CHANNELS 3 Zrotation Xrotation Yrotation
									JOINT LeftHandIndex2
									{
										OFFSET	 0.000000	 0.047237	 0.000000
										CHANNELS 3 Zrotation Xrotation Yrotation
										JOINT LeftHandIndex3
										{
											OFFSET	-0.004284	 0.038165	 0.000551
											CHANNELS 3 Zrotation Xrotation Yrotation
											End Site
											{
												OFFSET	-0.004284	 0.038165	 0.000551
											}
										}
									}
								}
							}
						}
					}
				}
				JOINT Neck
				{
					OFFSET	 0.000000	 0.176489	 0.000000
					CHANNELS 3 Zrotation Xrotation Yrotation
					JOINT Head
					{
						OFFSET	 0.000000	 0.077941	 0.001747
						CHANNELS 3 Zrotation Xrotation Yrotation
						End Site
						{
							OFFSET	 0.000000	 0.077941	 0.001747
						}
					}
				}
				JOINT RightShoulder
				{
					OFFSET	-0.080363	 0.159706	-0.000306
					CHANNELS 3 Zrotation Xrotation Yrotation
					JOINT RightArm
					{
						OFFSET	 0.000000	 0.164196	 0.000000
						CHANNELS 3 Zrotation Xrotation Yrotation
						JOINT RightForeArm
						{
							OFFSET	 0.000000	 0.365611	 0.000000
							CHANNELS 3 Zrotation Xrotation Yrotation
							JOINT RightHand
							{
								OFFSET	 0.000000	 0.360648	 0.000000
								CHANNELS 3 Zrotation Xrotation Yrotation
								JOINT RightHandIndex1
								{
									OFFSET	 0.000000	 0.069977	 0.000000
									CHANNELS 3 Zrotation Xrotation Yrotation
									JOINT RightHandIndex2
									{
										OFFSET	 0.000000	 0.052305	 0.000000
										CHANNELS 3 Zrotation Xrotation Yrotation
										JOINT RightHandIndex3
										{
											OFFSET	 0.009002	 0.042196	 0.000782
											CHANNELS 3 Zrotation Xrotation Yrotation
											End Site
											{
												OFFSET	 0.009002	 0.042196	 0.000782
											}
										}
									}
								}
							}
						}
					}
				}
			}
		}
	}
}
MOTION
Frames:    5
Frame Time: 0.03333334
-0.047181	 1.234740	-1.246471	-2.653176	 1.329518	-174.272100	 167.868300	 7.329701	 8.205813	 4.193618	-28.885940	 6.013875	 6.893606	 77.511310	 0.797456	 1.512287	 31.240310	-2.811662	-178.125200	 27.966920	-6.871982	-5.799088	-53.343760	 6.306530	 11.727820	 70.191030	-8.202215	-1.668530	 33.137300	 2.886185	-1.364282	 8.717093	-7.820642	 2.792200	 2.966311	-3.401917	-2.714180	-3.131599	 6.990947	-121.358900	 7.423540	 94.035500	 18.247390	 46.670560	-2.387077	 17.418090	-0.887424	 0.052035	-1.048404	-26.929750	-12.062720	 4.624177	 18.856530	-1.654968	-5.863953	 21.470840	 2.373669	 5.331528	 4.340008	-0.169039	-0.168371	-5.009586	-0.144698	-2.134348	-2.171891	-1.212283	 118.423900	-0.013289	-90.826350	 2.763140	 54.539880	-7.855204	-7.072278	-0.277569	 0.041428	-10.913500	-4.490376	-30.938690	-2.438165	 25.992480	 1.336381	 15.855080	 44.981340	-11.843920	-8.529009	 23.990480	-1.227679
-0.047102	 1.236010	-1.249387	-2.666398	 1.267908	-174.216100	 167.860400	 7.278699	 8.174015	 4.225843	-28.942070	 6.117958	 7.112922	 77.349950	 0.606293	 1.516079	 31.287490	-2.813446	-178.258100	 28.366160	-6.677455	-5.819094	-53.358640	 6.332126	 12.511570	 70.522460	-8.762434	-1.670185	 33.157090	 2.887012	-1.362962	 8.640692	-7.859672	 2.786446	 3.064167	-3.410477	-2.713699	-3.290243	 6.974428	-121.357600	 7.470757	 94.058970	 17.045620	 46.618590	-1.406363	 19.375210	-0.983517	 0.084048	-1.803193	-27.575660	-12.067500	 4.630275	 18.876540	-1.658219	-5.863899	 21.488410	 2.375609	 5.332283	 4.357690	-0.168717	-0.169236	-5.013601	-0.140726	-2.120710	-2.210579	-1.216680	 118.417300	-0.041142	-90.813290	 6.042334	 54.343100	-10.431590	-10.538660	-0.412327	 0.020538	-9.317454	-4.721336	-31.044870	-2.415985	 25.827980	 1.324472	 15.813250	 44.820860	-11.779670	-8.529653	 23.825350	-1.216663
-0.047007	 1.237029	-1.253098	-2.682574	 1.195216	-174.150600	 167.851200	 7.197747	 8.146456	 4.262918	-29.003320	 6.239548	 7.417759	 77.251590	 0.331247	 1.520527	 31.342780	-2.815542	-178.418800	 28.877920	-6.456046	-5.841777	-53.365220	 6.362981	 13.481380	 70.927150	-9.461834	-1.672125	 33.180270	 2.887984	-1.361329	 8.560443	-7.904688	 2.777867	 3.155164	-3.418818	-2.711206	-3.437696	 6.950182	-121.356200	 7.526082	 94.086430	 16.077970	 46.506900	-0.583799	 21.144240	-1.069351	 0.115727	-2.476490	-28.312370	-12.066740	 4.637424	 18.899990	-1.662032	-5.863836	 21.509010	 2.377882	 5.333167	 4.378407	-0.168341	-0.170248	-5.018306	-0.136072	-2.104519	-2.250623	-1.222609	 118.409700	-0.073770	-90.797950	 8.462605	 54.160240	-12.290310	-12.955640	-0.505410	 0.001170	-8.250373	-5.028250	-31.173030	-2.390082	 25.635220	 1.310628	 15.764710	 44.632780	-11.704810	-8.530360	 23.631850	-1.203777
-0.046874	 1.237971	-1.258510	-2.704438	 1.098889	-174.063900	 167.842000	 7.056240	 8.265085	 4.228287	-29.085540	 6.230586	 7.868677	 77.205390	-0.082100	 1.526412	 31.415820	-2.818322	-178.642000	 29.618520	-6.167424	-5.869009	-53.348630	 6.406411	 14.821930	 71.425710	-10.435910	-1.674690	 33.210910	 2.889269	-1.358981	 8.461870	-7.964611	 2.765371	 3.261259	-3.429769	-2.706263	-3.603890	 6.914202	-121.354300	 7.599223	 94.122750	 15.181740	 46.307180	 0.214875	 23.076050	-1.161901	 0.153347	-3.227208	-29.255260	-12.062800	 4.646873	 18.930970	-1.667077	-5.863754	 21.536230	 2.380887	 5.334336	 4.405782	-0.167844	-0.171585	-5.024524	-0.129921	-2.082952	-2.299299	-1.231137	 118.399500	-0.116891	-90.777740	 10.865420	 53.950900	-14.097730	-15.206890	-0.591342	-0.020414	-7.310642	-5.456347	-31.346420	-2.355992	 25.380460	 1.292514	 15.701330	 44.384130	-11.606590	-8.531222	 23.376130	-1.186779
-0.046619	 1.238978	-1.269321	-2.743051	 0.930409	-173.913700	 167.838300	 6.718007	 8.329345	 4.245889	-29.186610	 6.385037	 8.767146	 77.266490	-0.916600	 1.536736	 31.543710	-2.823215	-179.067200	 31.055890	-5.754029	-5.774722	-53.228450	 6.654767	 17.261990	 72.123640	-12.221530	-1.679185	 33.264550	 2.891524	-1.354746	 8.301125	-8.072186	 2.744045	 3.434138	-3.451455	-2.696084	-3.856650	 6.845580	-121.351200	 7.727211	 94.186340	 14.245180	 45.856220	 1.127865	 25.872870	-1.293550	 0.213303	-4.391667	-30.828040	-12.060330	 4.663426	 18.985200	-1.675923	-5.863615	 21.583870	 2.386148	 5.336381	 4.453704	-0.166976	-0.173924	-5.035408	-0.119155	-2.044951	-2.378309	-1.246942	 118.381800	-0.192401	-90.742330	 14.185110	 53.617780	-16.538670	-18.041490	-0.698172	-0.052333	-6.252089	-6.232981	-31.662580	-2.296690	 24.934390	 1.261293	 15.592430	 43.948610	-11.436530	-8.532529	 22.928390	-1.157106
